<svg width="400" height="129" viewBox="0 0 400 129" fill="none" xmlns="http://www.w3.org/2000/svg">
<g clip-path="url(#clip0_303_3)">
<path d="M0 0H400V129H0V0Z" fill="white"/>
<path d="M112.793 84.629L129.233 36.818H151.01L124.379 104.5H97.748L71.1172 36.818H92.8942L109.334 84.629H112.793Z" fill="#0065B3"/>
<path d="M198.818 80.898C198.818 90.045 195.968 97.465 190.268 103.165C184.568 108.865 177.148 111.715 167.998 111.715C158.848 111.715 151.428 108.865 145.728 103.165C140.028 97.465 137.178 90.045 137.178 80.898V54.268C137.178 45.121 140.028 37.701 145.728 32.001C151.428 26.301 158.848 23.451 167.998 23.451C177.148 23.451 184.568 26.301 190.268 32.001C195.968 37.701 198.818 45.121 198.818 54.268V80.898ZM179.358 82.218C179.358 74.455 178.239 68.218 175.998 63.508C173.852 58.705 171.048 56.308 167.588 56.308C164.128 56.308 161.325 58.705 159.178 63.508C157.032 68.218 155.958 74.455 155.958 82.218V83.538C155.958 91.295 157.032 97.535 159.178 102.245C161.325 106.955 164.128 109.308 167.588 109.308C171.048 109.308 173.852 106.955 175.998 102.245C178.239 97.535 179.358 91.295 179.358 83.538V82.218Z" fill="#0065B3"/>
<g filter="url(#filter0_d_303_3)">
<path d="M298.538 41.77C298.538 43.15 297.794 44.59 296.306 46.09C294.818 47.59 292.964 48.97 290.744 50.23C288.524 51.49 286.082 52.69 283.418 53.83L282.446 54.25L282.164 54.37C280.946 54.91 279.794 55.48 278.708 56.08C277.622 56.68 276.626 57.34 275.72 58.06C274.814 58.72 273.998 59.47 273.272 60.31C272.546 61.09 271.94 61.96 271.454 62.92C270.968 63.88 270.638 64.9 270.464 65.98C270.29 67.06 270.203 68.23 270.203 69.49C270.203 72.85 271.046 75.64 272.732 77.86C274.418 80.08 276.764 81.67 279.77 82.63C282.776 83.53 286.136 83.98 289.85 83.98H290.03C294.626 83.98 298.538 83.38 301.766 82.18C304.994 80.98 307.49 79.24 309.254 76.96C311.018 74.68 311.9 71.98 311.9 68.86C311.9 67.42 311.642 65.92 311.126 64.36C310.61 62.8 309.806 61.27 308.714 59.77C307.622 58.27 306.272 56.86 304.664 55.54C303.116 54.16 301.346 52.87 299.354 51.67L298.748 51.28L292.01 47.05L290.744 46.33C288.926 45.31 287.426 44.35 286.244 43.45C285.062 42.49 284.138 41.59 283.472 40.75C282.806 39.85 282.35 38.98 282.104 38.14C281.858 37.3 281.735 36.46 281.735 35.62C281.735 34.06 282.191 32.83 283.103 31.93C284.015 31.03 285.221 30.58 286.721 30.58C288.773 30.58 290.459 31.12 291.779 32.2C293.099 33.28 294.029 34.69 294.569 36.43C294.885 37.45 295.043 38.44 295.043 39.4C295.043 39.7 295.025 39.985 294.989 40.255C294.953 40.525 294.908 40.765 294.854 40.975C294.596 41.875 294.356 42.475 294.134 42.775L296.846 44.455C297.35 44.155 297.746 43.69 298.034 43.06C298.322 42.43 298.466 41.905 298.466 41.485L298.538 41.77Z" fill="#0065B3"/>
<path d="M298.466 41.485C298.466 40.615 298.112 39.565 297.404 38.335C296.696 37.105 295.562 35.83 294.002 34.51C292.442 33.19 290.546 32.2 288.314 31.54C286.082 30.88 283.64 30.55 281.018 30.55C277.586 30.55 274.652 31.27 272.216 32.71C269.78 34.15 267.944 36.19 266.708 38.83C265.472 41.47 264.854 44.59 264.854 48.19C264.854 52.81 265.913 56.8 268.031 60.16C270.149 63.52 273.065 66.13 276.779 68C275.633 68.98 274.619 70.09 273.737 71.32C272.855 72.55 272.165 73.81 271.667 75.1C271.169 76.39 270.833 77.62 270.659 78.79C270.485 79.96 270.398 81.07 270.398 82.12C270.398 84.82 270.872 87.1 271.82 88.96C272.768 90.82 274.136 92.29 275.924 93.37C277.712 94.45 279.836 95.14 282.296 95.44C284.756 95.74 287.426 95.89 290.306 95.89H290.666C296.258 95.89 300.992 95.035 304.868 93.325C308.744 91.615 311.66 89.17 313.616 85.99C315.572 82.81 316.55 79.12 316.55 74.92C316.55 71.44 315.89 68.35 314.57 65.65C313.25 62.95 311.366 60.7 308.918 58.9L308.21 58.36L302.21 54.16C300.584 52.99 299.12 51.865 297.818 50.785C296.516 49.705 295.436 48.685 294.578 47.725C293.72 46.705 293.06 45.745 292.598 44.845C292.136 43.945 291.908 43.06 291.908 42.19C291.908 40.51 292.502 39.175 293.69 38.185C294.878 37.195 296.426 36.7 298.334 36.7C299.822 36.7 301.052 36.985 302.024 37.555C302.996 38.125 303.746 38.92 304.274 39.94C304.59 40.54 304.814 41.155 304.946 41.785C305.078 42.415 305.144 43.03 305.144 43.63C305.144 44.14 305.093 44.605 304.991 45.025C304.889 45.445 304.757 45.835 304.595 46.195L301.811 44.575C301.307 45.025 300.863 45.565 300.479 46.195C300.095 46.825 299.819 47.455 299.651 48.085L299.354 51.67L299.282 51.76L298.748 51.28L299.354 51.67C299.354 51.67 298.538 41.77 298.538 41.77L298.466 41.485Z" fill="#0065B3"/>
</g>
<path d="M217.108 80.898C217.108 90.045 214.258 97.465 208.558 103.165C202.858 108.865 195.438 111.715 186.288 111.715C177.138 111.715 169.718 108.865 164.018 103.165C158.318 97.465 155.468 90.045 155.468 80.898V54.268C155.468 45.121 158.318 37.701 164.018 32.001C169.718 26.301 177.138 23.451 186.288 23.451C195.438 23.451 202.858 26.301 208.558 32.001C214.258 37.701 217.108 45.121 217.108 54.268V80.898ZM197.648 82.218C197.648 74.455 196.529 68.218 194.288 63.508C192.142 58.705 189.338 56.308 185.878 56.308C182.418 56.308 179.615 58.705 177.468 63.508C175.322 68.218 174.248 74.455 174.248 82.218V83.538C174.248 91.295 175.322 97.535 177.468 102.245C179.615 106.955 182.418 109.308 185.878 109.308C189.338 109.308 192.142 106.955 194.288 102.245C196.529 97.535 197.648 91.295 197.648 83.538V82.218Z" fill="#0065B3"/>
<path d="M266.307 23.868H238.167V111.3H266.307V23.868Z" fill="#0065B3"/>
<path d="M261.272 56.248C263.132 56.248 264.602 55.672 265.682 54.52C266.762 53.368 267.302 51.868 267.302 50.02V49.54C267.302 47.98 266.867 46.648 265.997 45.544C265.127 44.44 263.933 43.888 262.415 43.888C258.959 43.888 256.313 45.496 254.477 48.712C254.162 49.24 253.949 49.888 253.838 50.656C253.727 51.424 253.672 52.24 253.672 53.104V58.792C253.672 63.856 254.912 68.032 257.392 71.32C259.872 74.608 263.303 76.248 267.683 76.248C270.839 76.248 273.503 75.64 275.675 74.424C277.847 73.208 279.467 71.536 280.535 69.408C281.603 67.28 282.137 64.816 282.137 62.016V60.664C282.137 59.032 281.801 57.544 281.129 56.2C280.457 54.856 279.527 53.728 278.339 52.816C277.151 51.904 275.765 51.248 274.181 50.848C272.597 50.448 270.881 50.248 269.033 50.248C267.893 50.248 266.843 50.368 265.883 50.608C264.923 50.848 264.083 51.208 263.363 51.688L261.272 56.248Z" fill="#0065B3"/>
<path d="M333.682 92.548C333.682 96.694 332.932 100.15 331.432 102.916C329.932 105.682 327.859 107.728 325.213 109.054C322.567 110.38 319.492 111.043 315.988 111.043C311.968 111.043 308.614 110.155 305.926 108.379C303.238 106.603 301.216 104.149 299.86 101.017C298.504 97.885 297.826 94.273 297.826 90.181C297.826 86.134 298.486 82.684 299.806 79.831C301.126 76.978 303.112 74.653 305.764 72.856C308.416 71.059 311.662 70.159 315.502 70.159H315.718C319.438 70.159 322.693 71.059 325.483 72.856C328.273 74.653 330.346 76.963 331.702 79.789C333.058 82.615 333.742 85.945 333.742 89.779L333.682 92.548ZM316.048 90.181C316.048 95.713 317.062 100.129 319.09 103.429C319.816 104.596 320.662 105.475 321.628 106.066C322.594 106.657 323.59 106.951 324.616 106.951C325.642 106.951 326.638 106.657 327.604 106.066C328.57 105.475 329.416 104.596 330.142 103.429C331.798 100.756 332.626 97.432 332.626 93.457C332.626 89.311 331.783 85.882 330.199 83.17C328.615 80.458 326.398 78.502 323.548 77.299C320.698 76.096 317.428 75.493 313.738 75.493C310.048 75.493 307.033 76.123 304.693 77.383C302.353 78.643 300.679 80.455 299.671 82.819C298.663 85.183 298.159 87.79 298.159 90.64C298.159 91.9 298.249 93.07 298.429 94.15C298.609 95.23 298.885 96.19 299.257 97.03L316.048 90.181Z" fill="#0065B3"/>
</g>
<defs>
<filter id="filter0_d_303_3" x="264.854" y="30.55" width="52.2617" height="66.3401" filterUnits="userSpaceOnUse" color-interpolation-filters="sRGB">
<feFlood flood-opacity="0" result="BackgroundImageFix"/>
<feColorMatrix in="SourceAlpha" type="matrix" values="0 0 0 0 0 0 0 0 0 0 0 0 0 0 0 0 0 0 127 0" result="hardAlpha"/>
<feOffset dx="0.3" dy="1"/>
<feComposite in2="hardAlpha" operator="out"/>
<feColorMatrix type="matrix" values="0 0 0 0 0 0 0 0 0 0 0 0 0 0 0 0 0 0 0.1 0"/>
<feBlend mode="normal" in2="BackgroundImageFix" result="effect1_dropShadow_303_3"/>
<feBlend mode="normal" in="SourceGraphic" in2="effect1_dropShadow_303_3" result="shape"/>
</filter>
<clipPath id="clip0_303_3">
<rect width="400" height="129" fill="white"/>
</clipPath>
</defs>
</svg>
