<?xml version="1.0" encoding="UTF-8"?>
<svg id="Layer_1" data-name="Layer 1" xmlns="http://www.w3.org/2000/svg" viewBox="0 0 900 900">
  <defs>
    <style>
      .cls-1, .cls-2 {
        fill: #0f60ad;
      }

      .cls-2 {
        fill-rule: evenodd;
      }
    </style>
  </defs>
  <path class="cls-2" d="m166.31,250.83c38.93.14,79.11,9.35,120.41,27.77l1.95.84.7,1.95v.14c3.35,10.19,6.28,20.37,8.65,30.56,2.37,10.19,4.33,20.37,5.72,30.56,1.95,13.4,3.07,26.65,3.35,40.05v15.63c-.84,33.77-6.7,67.53-17.72,101.3l-.7,1.95-1.95.84c-39.07,17.3-78.28,25.81-117.34,25.81h-3.07v-9.49h3.07c37.12,0,74.37-7.95,111.62-24.14,16.19-50.23,20.65-100.46,13.4-150.69-1.4-9.77-3.35-19.81-5.72-29.72-2.09-9.21-4.74-18.56-7.67-27.77-39.49-17.3-77.72-25.95-114.69-26.09v-9.49h0Zm-114.55,27.91l-2.23,2.37c-14.93,35.16-23.44,71.02-23.86,107.44v4.47c.14,35.02,7.67,70.74,23.86,107.02l2.51,2.37c38.09,16.88,76.18,25.39,114.27,25.81v-9.49c-36.28-.42-72.55-8.51-108.83-24.28-15.77-36-22.88-71.3-22.32-105.77.42-34.74,8.37-68.79,22.46-102.28,34.74-17.44,70.6-26.09,107.86-26.09h.84v-9.49h-.84c-39.21,0-77.16,9.21-113.72,27.91h0Z"/>
  <path class="cls-2" d="m168.82,466.96c-1.95-26.65-.7-54.42-8.65-79.81-7.39-23.72-35.44-37.26-36-63.35-.56-20.37,14.93-43.95,43.95-43.95,27.21-.14,44.09,19.67,46.04,41.72,2.37,25.53-28.6,42.7-36.7,66.98-8.37,24.84-6,52.32-8.65,78.42Z"/>
  <path class="cls-2" d="m179.57,460.54c-1.12-23.16-1.12-45.35,5.3-65.02,7.12-22.33,21.91-41.16,44.51-47.3,15.49-4.19,38.23,13.95,34.6,32.51-3.07,14.93-18,32.51-42,34.46-11.16.98-15.91,9.91-22.88,15.07,31.26-3.07,51.49-15.35,65.58-28.19,2.09,10.88,3.49,29.16-5.02,35.44-16.74,11.86-32.23,2.23-51.9,7.81-11.02,3.21-17.86,10.18-28.19,15.21Z"/>
  <path class="cls-2" d="m158.22,460.54c1.26-23.16,1.12-45.35-5.16-65.02-7.12-22.33-21.91-41.16-44.51-47.3-15.49-4.19-38.37,13.95-34.6,32.51,3.07,14.93,18,32.51,42,34.46,11.02.98,15.91,9.91,22.88,15.07-31.39-3.07-51.49-15.35-65.58-28.19-2.09,10.88-3.49,29.16,5.02,35.44,16.74,11.86,32.23,2.23,51.9,7.81,11.02,3.21,17.72,10.18,28.05,15.21Z"/>
  <path class="cls-2" d="m232.59,495.01v-3.77l2.79-.7-2.79-4.19v-6.98l12.56,17.44-4.47,1.12-3.07-4.33-5.02,1.4h0Zm0-15.63l-.84-1.26-4.47,1.12-2.93,22.74,4.47-1.12.56-5.16,3.21-.7v-3.77l-2.79.7.84-8.37,1.95,2.79v-6.98h0Zm-41.58,27.77h0v-3.63h.98c1.53-.14,2.51-.28,2.93-.42.56-.14,1.12-.56,1.4-.98.42-.56.56-1.12.56-1.81-.14-.7-.28-1.26-.7-1.67-.28-.42-.84-.7-1.4-.84-.56-.14-1.81-.14-3.77,0v-3.63c1.12,0,1.81-.14,2.09-.14.7-.14,1.26-.56,1.67-.98.42-.42.56-.98.42-1.67,0-.7-.28-1.26-.7-1.54-.28-.42-.84-.7-1.67-.7-.28,0-.84,0-1.81.14v-3.63c1.54-.14,2.65-.14,3.35,0,.84,0,1.67.28,2.37.7.7.28,1.26.84,1.81,1.53.42.7.7,1.54.84,2.51.14.98-.14,1.95-.56,2.79-.42.84-1.12,1.54-2.09,2.09,1.4.28,2.51.84,3.21,1.67.84.84,1.26,1.81,1.4,3.07,0,.98-.14,1.95-.42,2.93-.42.98-.98,1.67-1.67,2.37-.84.56-1.67.98-2.79,1.26-.7.14-2.51.28-5.16.56h-.28Zm26.37-11.72h0l4.33.56c-.28,2.37-.98,4.33-2.23,5.72-1.26,1.26-3.07,2.23-5.3,2.65-2.79.42-5.3-.14-7.4-1.67-2.23-1.67-3.49-4.05-4.19-7.39-.56-3.49-.14-6.42,1.4-8.65,1.4-2.23,3.63-3.63,6.56-4.19,2.65-.42,4.74,0,6.7,1.26,1.12.7,2.09,1.81,2.79,3.49l-4.05,1.67c-.42-.98-1.12-1.81-1.95-2.23-.98-.56-1.95-.7-3.07-.56-1.54.28-2.65,1.12-3.49,2.37-.84,1.39-.98,3.21-.56,5.72.56,2.65,1.4,4.47,2.51,5.44,1.12.98,2.51,1.4,4.05,1.12,1.12-.28,1.95-.84,2.65-1.67.7-.84,1.12-2.09,1.26-3.63h0Zm-26.37-9.77c-.14,0-.28,0-.42.14l-8.51.7,1.95,21.35,6.98-.7v-3.63l-3.07.28-.42-5.72,3.35-.28h.14v-3.63c-.28.14-.7.14-.98.14l-2.93.28-.42-4.88,2.51-.28c.7,0,1.26-.14,1.81-.14v-3.63h0Zm-26.93,14.09h0v-3.63c.98,0,1.53-.14,1.95-.28.56-.14.98-.56,1.4-.98.28-.56.42-1.12.42-1.67.14-.84-.14-1.4-.56-1.95-.42-.56-.98-.84-1.67-.98-.42,0-.84-.14-1.53-.14v-3.63c2.09,0,3.35.14,4.05.42,1.25.28,2.23.98,3.07,2.09.84,1.12,1.25,2.51,1.12,4.19,0,1.26-.28,2.37-.7,3.35-.56.84-1.12,1.54-1.81,2.09-.84.42-1.53.7-2.37.98-.84.14-1.95.14-3.35.14h0Zm0-13.26h-1.12l-6.84-.14-.42,21.35,4.33.14.14-8.09h3.91v-3.63h-3.77v-6.14l2.09.14h1.67v-3.63h0Zm-40.32,11.16h0v-6.56c1.26.28,2.09.28,2.51.28.56-.14.98-.28,1.4-.7.28-.42.56-.84.7-1.53.14-.7,0-1.26-.28-1.81-.28-.56-.84-.84-1.54-1.12-.28-.14-1.25-.28-2.79-.56v-3.63l1.81.28c2.23.42,3.77.84,4.74,1.4.98.56,1.67,1.4,2.09,2.51.42.98.56,2.23.28,3.49-.28,1.54-.98,2.79-2.09,3.63-.98.84-2.51,1.26-4.46,1.26.84.7,1.53,1.4,1.95,2.09.56.84,1.12,2.09,1.81,3.91l1.81,4.6-5.02-.98-2.23-5.16c-.28-.42-.42-.98-.7-1.4h0Zm12.28-13.26h0l4.19.42-.98,11.58c-.14,1.81-.14,3.07-.14,3.49.14.98.56,1.67,1.12,2.23.7.7,1.53.98,2.79,1.12,1.26.14,2.23-.14,2.79-.56.7-.42,1.12-.98,1.4-1.67.14-.7.28-1.95.42-3.63l.98-11.86,4.33.42-.98,11.16c-.14,2.65-.42,4.47-.84,5.44-.28.98-.84,1.95-1.4,2.51-.7.7-1.67,1.26-2.79,1.54-.98.42-2.37.42-4.05.28-2.09-.14-3.63-.56-4.61-1.12-.98-.56-1.81-1.26-2.37-1.95-.56-.84-.84-1.67-.98-2.51-.14-1.26-.14-3.07,0-5.44l1.12-11.44h0Zm-33.91,6.28h0l.84-3.49,9.07,2.37-2.23,8.23c-1.12.7-2.51,1.12-4.47,1.26-1.81.14-3.49,0-5.16-.42-2.23-.56-4.05-1.53-5.3-2.79-1.4-1.4-2.23-3.07-2.65-4.88-.28-1.95-.28-3.91.28-5.86.56-2.09,1.53-3.91,2.93-5.44,1.26-1.4,2.93-2.23,4.88-2.65,1.54-.42,3.35-.28,5.3.28,2.51.7,4.47,1.67,5.58,3.21,1.12,1.39,1.67,3.21,1.54,5.16l-4.33-.28c0-1.12-.28-2.09-.98-2.93-.7-.7-1.53-1.4-2.79-1.67-1.81-.42-3.35-.28-4.74.56-1.4.84-2.37,2.51-3.07,4.74-.7,2.51-.56,4.47.14,6,.84,1.53,2.09,2.51,3.77,2.93.98.28,1.81.28,2.79.28.98-.14,1.81-.42,2.65-.7l.7-2.65-4.74-1.26h0Zm21.63-8.65h0l-7.26-1.26-3.63,21.07,4.19.7,1.54-8.79.98.14c.98.14,1.67.42,2.09.56.42.28.7.7,1.12,1.12.14.42.56,1.12.98,2.09v-6.56c-.42,0-.84-.14-1.4-.14l-3.07-.56.84-5.3,3.35.56h.28v-3.63Z"/>
  <path class="cls-2" d="m788.75,455.94v-39.35h17.3v-69.21l-17.3,34.6v-86.37h67.95l17.3,198.97h-67.95v-38.65h-17.3Zm0-160.32h-24l-26.79,49.95h9.63l-47.02,101.44v45.49h42.14l13.39-36.56h32.65v-39.35h-17.3l17.3-34.61v-86.37h0Zm-88.18,66.28v-61.67l21.07,11.72-21.07,49.95h0Zm-167.57-19.12h0c.98-5.72.98-11.3,0-16.6v16.6h0Zm167.57-42.56h0v61.67l-2.79,6.7c-41.58-29.72-102.97-2.65-106.46,28.74-3.49,32.79,21.49,59.3,85.25,39.49l-21.91,58.6c-84.13,9.35-116.79-24-121.67-62.93v-22.05c1.26-10.19,3.91-20.09,7.53-29.3,41.44-102.98,108.69-79.81,134.23-81.77l3.77-11.44,22.05,12.28h0Zm0,146.79v45.49h-21.07l21.07-45.49h0Zm-243.2,44.23v-48.42c13.25-8.79,20.51-37.26,0-41.16v-30.14h8.51c18.98,0,20.93-39.35,5.72-39.35h-14.23v-38.23l34.32.7c24.98.42,38.23,14.37,41.3,31.54v16.6c-2.65,16.46-13.39,33.07-30.7,42.28,44.37,43.11.14,97.25-44.93,106.18h0Zm75.62-80.79c-.84,7.39-.84,14.79,0,22.05v-22.05h0Zm-135.06-117.77h0l-27.77,53.86,12.42-.98-33.49,146.93h95.86c4.19,0,8.23-.42,12.42-1.26v-48.42c-2.37,1.67-5.02,2.65-7.68,2.65h-34.46l11.44-44.23h25.81c1.81,0,3.49.14,4.88.42v-30.14h-24l9.63-39.35h14.37v-38.23l-59.44-1.26Z"/>
  <g>
    <path class="cls-1" d="m75.05,567.55l-9.21,2.96c-1.08-3.19-2.51-5.55-4.27-7.07s-4.18-2.28-7.23-2.28c-2.83,0-5.02.77-6.56,2.32-1.54,1.55-2.31,3.32-2.31,5.33,0,2.21.87,3.97,2.6,5.29,1.73,1.31,5.19,2.88,10.38,4.7,4.42,1.56,7.83,3.04,10.21,4.45,2.39,1.41,4.32,3.3,5.8,5.67,1.48,2.37,2.22,5.11,2.22,8.22,0,5.06-1.93,9.37-5.8,12.92s-9.28,5.34-16.25,5.34c-12.03,0-19.47-5.62-22.33-16.85l9.64-2.51c1.69,7.41,6.08,11.11,13.17,11.11,3.47,0,6.1-.83,7.9-2.49,1.8-1.66,2.7-3.71,2.7-6.15,0-1.79-.62-3.45-1.86-4.98-1.24-1.53-4.33-3.16-9.26-4.9-5.22-1.82-8.98-3.37-11.29-4.63-2.31-1.26-4.27-3.13-5.89-5.6s-2.43-5.28-2.43-8.42c0-4.79,1.81-8.82,5.42-12.08,3.61-3.26,8.41-4.9,14.39-4.9,10.59,0,17.35,4.85,20.28,14.55Z"/>
    <path class="cls-1" d="m120.86,593.4h-27.25c0,6.01.88,10.02,2.64,12.03s3.97,3.01,6.64,3.01c4.44,0,7.25-2.76,8.42-8.29l9.11,1.1c-2.39,9.44-8.33,14.16-17.85,14.16-5.82,0-10.47-1.93-13.93-5.78-3.47-3.85-5.2-9.5-5.2-16.94s1.75-13.55,5.25-17.73c3.5-4.17,8.18-6.26,14.03-6.26,4.1,0,7.56,1.04,10.35,3.13,2.8,2.09,4.77,4.83,5.92,8.22,1.15,3.4,1.77,7.84,1.86,13.34Zm-10.16-6.22c0-7.85-2.77-11.78-8.3-11.78-5.19,0-8.03,3.92-8.54,11.78h16.84Z"/>
    <path class="cls-1" d="m129.11,569.76h9.16v6.88c2.23-5.29,6.22-7.94,11.95-7.94,3.25,0,5.87.72,7.87,2.16,1.99,1.44,3.25,3.17,3.78,5.18.53,2.01.79,5.2.79,9.55v28.71h-9.93v-28.19c0-3.88-.37-6.51-1.1-7.91-.73-1.39-2.3-2.09-4.69-2.09s-4.43.89-5.82,2.67-2.08,5.31-2.08,10.59v24.93h-9.93v-44.54Z"/>
    <path class="cls-1" d="m183.03,582.37l-9.59-1.1c.64-3.97,2.61-7.06,5.93-9.26s7.39-3.31,12.22-3.31c4.32,0,7.78.8,10.36,2.4,2.59,1.6,4.22,3.51,4.88,5.71.67,2.21,1,5.54,1,10.01v15.17c0,6.15.29,10.25.86,12.3h-9.4c-.41-1.62-.62-4.09-.62-7.41-3.02,5.67-7.53,8.51-13.53,8.51-4.06,0-7.33-1.15-9.79-3.46-2.46-2.31-3.69-5.45-3.69-9.42,0-4.85,1.8-8.69,5.41-11.51,3.6-2.82,9.85-4.23,18.74-4.23.44,0,1.14.02,2.1.04v-1.81c0-3.18-.52-5.57-1.55-7.19-1.03-1.62-2.88-2.43-5.54-2.43-4.34,0-6.94,2.32-7.8,6.97Zm14.89,10.23c-1.27-.12-2.24-.18-2.9-.18-8.63,0-12.94,3.13-12.94,9.39,0,4.56,2.14,6.84,6.42,6.84,2.51,0,4.7-1.23,6.59-3.7,1.89-2.47,2.83-5.87,2.83-10.19v-2.16Z"/>
    <path class="cls-1" d="m219.01,569.76h9.16v6.88c2.23-5.29,6.22-7.94,11.95-7.94,3.25,0,5.87.72,7.87,2.16,1.99,1.44,3.25,3.17,3.78,5.18.53,2.01.79,5.2.79,9.55v28.71h-9.93v-28.19c0-3.88-.37-6.51-1.1-7.91-.73-1.39-2.3-2.09-4.69-2.09s-4.43.89-5.82,2.67-2.08,5.31-2.08,10.59v24.93h-9.93v-44.54Z"/>
    <path class="cls-1" d="m265.73,558.16l8.97-.79v12.39h9.21v7.41h-9.21v19.64c0,3.46.1,5.76.29,6.89s.76,2.05,1.72,2.77c.95.72,2.54,1.08,4.77,1.08,1.18,0,2.51-.1,4.01-.31v7.36c-2.67.53-5.15.8-7.44.8-3.72,0-6.57-.67-8.54-2.01-1.97-1.34-3.23-3.15-3.77-5.45-.54-2.29-.81-5.79-.81-10.5v-20.29h-6.25v-7.41h6.54l.52-11.6Z"/>
    <path class="cls-1" d="m300.8,563.76h-10.45v-9.75h10.45v9.75Zm-10.21,6h9.93v44.54h-9.93v-44.54Z"/>
    <path class="cls-1" d="m321.23,582.37l-9.59-1.1c.64-3.97,2.61-7.06,5.93-9.26s7.39-3.31,12.22-3.31c4.32,0,7.78.8,10.36,2.4,2.59,1.6,4.22,3.51,4.88,5.71.67,2.21,1,5.54,1,10.01v15.17c0,6.15.29,10.25.86,12.3h-9.4c-.41-1.62-.62-4.09-.62-7.41-3.02,5.67-7.53,8.51-13.53,8.51-4.06,0-7.33-1.15-9.79-3.46-2.46-2.31-3.69-5.45-3.69-9.42,0-4.85,1.8-8.69,5.41-11.51,3.6-2.82,9.85-4.23,18.74-4.23.44,0,1.14.02,2.1.04v-1.81c0-3.18-.52-5.57-1.55-7.19-1.03-1.62-2.88-2.43-5.54-2.43-4.34,0-6.94,2.32-7.8,6.97Zm14.89,10.23c-1.27-.12-2.24-.18-2.9-.18-8.63,0-12.94,3.13-12.94,9.39,0,4.56,2.14,6.84,6.42,6.84,2.51,0,4.7-1.23,6.59-3.7,1.89-2.47,2.83-5.87,2.83-10.19v-2.16Z"/>
    <path class="cls-1" d="m386.22,580.17l-7.78,1.94c-1.43-4.47-4.15-6.7-8.16-6.7-1.85,0-3.33.53-4.46,1.59-1.13,1.06-1.69,2.37-1.69,3.92,0,1.76.57,3.06,1.72,3.88,1.15.82,3.77,1.85,7.87,3.09,5.06,1.56,8.7,3.32,10.93,5.27,2.23,1.96,3.34,4.68,3.34,8.18,0,3.94-1.59,7.27-4.77,9.99-3.18,2.72-7.48,4.08-12.88,4.08-10.21,0-16-4.32-17.37-12.97l8.45-1.46c1.08,5.12,4.15,7.67,9.21,7.67,2.58,0,4.49-.59,5.75-1.76,1.26-1.18,1.88-2.57,1.88-4.19,0-1.12-.43-2.23-1.29-3.33s-3.26-2.24-7.21-3.42c-3.79-1.12-6.64-2.16-8.57-3.13-1.93-.97-3.51-2.37-4.75-4.21s-1.86-3.92-1.86-6.24c0-3.79,1.5-7.02,4.49-9.68,2.99-2.66,6.85-3.99,11.6-3.99,8.05,0,13.23,3.82,15.56,11.47Z"/>
    <path class="cls-1" d="m404.5,582.37l-9.59-1.1c.64-3.97,2.61-7.06,5.93-9.26s7.39-3.31,12.22-3.31c4.32,0,7.78.8,10.36,2.4,2.59,1.6,4.22,3.51,4.88,5.71.67,2.21,1,5.54,1,10.01v15.17c0,6.15.29,10.25.86,12.3h-9.4c-.41-1.62-.62-4.09-.62-7.41-3.02,5.67-7.53,8.51-13.53,8.51-4.06,0-7.33-1.15-9.79-3.46-2.46-2.31-3.69-5.45-3.69-9.42,0-4.85,1.8-8.69,5.41-11.51,3.6-2.82,9.85-4.23,18.74-4.23.44,0,1.14.02,2.1.04v-1.81c0-3.18-.52-5.57-1.55-7.19-1.03-1.62-2.88-2.43-5.54-2.43-4.34,0-6.94,2.32-7.8,6.97Zm14.89,10.23c-1.27-.12-2.24-.18-2.9-.18-8.63,0-12.94,3.13-12.94,9.39,0,4.56,2.14,6.84,6.42,6.84,2.51,0,4.7-1.23,6.59-3.7,1.89-2.47,2.83-5.87,2.83-10.19v-2.16Z"/>
    <path class="cls-1" d="m483.76,554.1h9.93v60.2h-9.16v-6.75c-2.31,5.03-6.29,7.54-11.94,7.54s-9.49-2.1-12.2-6.31c-2.71-4.2-4.07-9.72-4.07-16.54,0-7.32,1.5-13.02,4.49-17.11,3-4.09,6.98-6.13,11.96-6.13,5.23,0,8.89,1.97,10.99,5.91v-20.82Zm0,33.99c0-4.58-.93-7.79-2.8-9.62s-3.8-2.75-5.79-2.75c-5.5,0-8.26,5.23-8.26,15.68,0,11.16,2.78,16.74,8.35,16.74,2.15,0,4.1-.92,5.86-2.77,1.75-1.85,2.63-5.06,2.63-9.64v-7.62Z"/>
    <path class="cls-1" d="m515.54,563.76h-10.45v-9.75h10.45v9.75Zm-10.21,6h9.93v44.54h-9.93v-44.54Z"/>
    <path class="cls-1" d="m584.4,567.55l-9.21,2.96c-1.08-3.19-2.51-5.55-4.27-7.07-1.76-1.52-4.17-2.28-7.23-2.28-2.83,0-5.02.77-6.56,2.32-1.54,1.55-2.31,3.32-2.31,5.33,0,2.21.87,3.97,2.6,5.29,1.73,1.31,5.19,2.88,10.38,4.7,4.42,1.56,7.83,3.04,10.21,4.45,2.39,1.41,4.32,3.3,5.8,5.67s2.22,5.11,2.22,8.22c0,5.06-1.93,9.37-5.8,12.92s-9.28,5.34-16.25,5.34c-12.03,0-19.47-5.62-22.33-16.85l9.64-2.51c1.69,7.41,6.08,11.11,13.17,11.11,3.47,0,6.1-.83,7.9-2.49,1.8-1.66,2.7-3.71,2.7-6.15,0-1.79-.62-3.45-1.86-4.98-1.24-1.53-4.33-3.16-9.26-4.9-5.22-1.82-8.98-3.37-11.29-4.63-2.31-1.26-4.27-3.13-5.89-5.6s-2.43-5.28-2.43-8.42c0-4.79,1.8-8.82,5.42-12.08,3.61-3.26,8.41-4.9,14.39-4.9,10.59,0,17.35,4.85,20.28,14.55Z"/>
    <path class="cls-1" d="m605.39,563.76h-10.45v-9.75h10.45v9.75Zm-10.21,6h9.93v44.54h-9.93v-44.54Z"/>
    <path class="cls-1" d="m645.86,580.17l-7.78,1.94c-1.43-4.47-4.15-6.7-8.16-6.7-1.85,0-3.33.53-4.46,1.59-1.13,1.06-1.69,2.37-1.69,3.92,0,1.76.57,3.06,1.72,3.88,1.14.82,3.77,1.85,7.87,3.09,5.06,1.56,8.7,3.32,10.93,5.27,2.23,1.96,3.34,4.68,3.34,8.18,0,3.94-1.59,7.27-4.77,9.99-3.18,2.72-7.48,4.08-12.88,4.08-10.21,0-16-4.32-17.37-12.97l8.45-1.46c1.08,5.12,4.15,7.67,9.21,7.67,2.58,0,4.49-.59,5.75-1.76s1.88-2.57,1.88-4.19c0-1.12-.43-2.23-1.29-3.33-.86-1.1-3.26-2.24-7.21-3.42-3.79-1.12-6.64-2.16-8.57-3.13-1.92-.97-3.51-2.37-4.75-4.21-1.24-1.84-1.86-3.92-1.86-6.24,0-3.79,1.5-7.02,4.49-9.68,2.99-2.66,6.86-3.99,11.6-3.99,8.05,0,13.23,3.82,15.56,11.47Z"/>
    <path class="cls-1" d="m665.37,563.76h-10.45v-9.75h10.45v9.75Zm-10.21,6h9.93v44.54h-9.93v-44.54Z"/>
    <path class="cls-1" d="m707.66,554.1h12.09l17.49,60.2h-10.92l-4.09-15.08h-19.1l-4.05,15.08h-10.28l18.86-60.2Zm12.45,37.27l-7.47-27.56-7.4,27.56h14.87Z"/>
    <path class="cls-1" d="m743.35,569.76h9.16v6.88c2.23-5.29,6.22-7.94,11.95-7.94,3.25,0,5.87.72,7.87,2.16,1.99,1.44,3.25,3.17,3.78,5.18.53,2.01.79,5.2.79,9.55v28.71h-9.93v-28.19c0-3.88-.37-6.51-1.1-7.91-.73-1.39-2.3-2.09-4.69-2.09s-4.43.89-5.82,2.67c-1.39,1.78-2.08,5.31-2.08,10.59v24.93h-9.93v-44.54Z"/>
    <path class="cls-1" d="m813.35,554.1h9.93v60.2h-9.16v-6.75c-2.31,5.03-6.29,7.54-11.94,7.54s-9.49-2.1-12.2-6.31c-2.71-4.2-4.07-9.72-4.07-16.54,0-7.32,1.5-13.02,4.49-17.11,3-4.09,6.98-6.13,11.96-6.13,5.23,0,8.89,1.97,10.99,5.91v-20.82Zm0,33.99c0-4.58-.93-7.79-2.8-9.62s-3.8-2.75-5.79-2.75c-5.5,0-8.26,5.23-8.26,15.68,0,11.16,2.78,16.74,8.35,16.74,2.15,0,4.1-.92,5.86-2.77,1.75-1.85,2.63-5.06,2.63-9.64v-7.62Z"/>
    <path class="cls-1" d="m843.89,582.37l-9.59-1.1c.64-3.97,2.61-7.06,5.93-9.26,3.32-2.21,7.39-3.31,12.22-3.31,4.32,0,7.78.8,10.37,2.4,2.59,1.6,4.22,3.51,4.88,5.71s1,5.54,1,10.01v15.17c0,6.15.29,10.25.86,12.3h-9.4c-.41-1.62-.62-4.09-.62-7.41-3.02,5.67-7.53,8.51-13.53,8.51-4.06,0-7.33-1.15-9.79-3.46-2.46-2.31-3.69-5.45-3.69-9.42,0-4.85,1.8-8.69,5.41-11.51s9.85-4.23,18.74-4.23c.44,0,1.14.02,2.1.04v-1.81c0-3.18-.52-5.57-1.55-7.19s-2.88-2.43-5.54-2.43c-4.34,0-6.94,2.32-7.8,6.97Zm14.89,10.23c-1.27-.12-2.24-.18-2.9-.18-8.63,0-12.94,3.13-12.94,9.39,0,4.56,2.14,6.84,6.42,6.84,2.51,0,4.7-1.23,6.59-3.7,1.89-2.47,2.83-5.87,2.83-10.19v-2.16Z"/>
  </g>
</svg>