<?xml version="1.0" encoding="UTF-8"?>
<svg id="Layer_1" data-name="Layer 1" xmlns="http://www.w3.org/2000/svg" viewBox="0 0 960 960">
  <defs>
    <style>
      .cls-1, .cls-2, .cls-3, .cls-4 {
        stroke-width: 0px;
      }

      .cls-1, .cls-4 {
        fill: #2fcdcf;
      }

      .cls-2 {
        fill: #00a6b5;
      }

      .cls-3 {
        fill: #0060af;
      }

      .cls-4 {
        fill-rule: evenodd;
      }
    </style>
  </defs>
  <g>
    <path class="cls-4" d="M253.74,298.66c-72.13,0-115.07,45.94-119.79,50.23-4.72,4.29-13.31,4.72-13.31-5.37v-168.67H9.01v412.98c73,0,84.36-73.42,101.97-73.42s32.63,75.78,135.89,75.78,144.69-60.33,144.69-151.78-65.69-139.76-137.82-139.76h0ZM214.28,502.81h0c-43.55,0-76.25-22.11-76.25-58.92s32.7-58.92,76.25-58.92,76.17,20.38,76.17,58.92-32.62,58.92-76.17,58.92Z"/>
    <rect class="cls-1" x="434.07" y="174.86" width="109.06" height="415.34"/>
    <path class="cls-4" d="M587.35,301.88h110.77v127.09c0,58.82,20.29,79,61.51,79s80.18-36.06,80.18-106.48v-99.61h112.06v286.38s-37.35,7.62-67.3-32.95c-29.95-40.57-31.56-49.27-49.59-27.69-18.03,21.58-45.73,62.58-134.28,62.58s-113.35-42.72-113.35-168.95v-119.36Z"/>
  </g>
  <g id="layer1">
    <g id="g59">
      <g id="g64">
        <path id="path20" class="cls-3" d="M74.4,767.95c0-5.62.06-20.63-.08-22.48.12-22.34-16.13-38.11-26.39-36.88-7.1.62-13.05,3.51-16.25,11.84-2.96,7.76-.31,18.09,9.53,20.51,10.53,2.6,16.68,4.77,21.13,7.82,5.45,3.74,9.9,10.89,10.02,19.19"/>
        <path id="path22" class="cls-3" d="M78.61,801.91c-18.57,0-37.65-4.57-56.71-13.62l-.47-.23-.22-.48c-8.55-18.05-13.07-37.8-13.07-57.12s4.34-38.19,12.9-56.22l.24-.48.48-.24c17.63-8.35,36.59-12.58,56.38-12.58,18.44,0,38.13,4.71,56.93,13.64l.48.21.22.49c8.72,18.39,13.31,38.13,13.31,57.12s-4.41,37.84-13.14,56.21l-.23.48-.49.22c-17.36,8.22-36.94,12.57-56.61,12.57M23.66,785.82c18.51,8.71,36.98,13.11,54.94,13.11,19.05,0,38-4.16,54.86-12.06,8.38-17.8,12.62-36.13,12.62-54.44s-4.43-37.52-12.82-55.36c-18.25-8.58-37.31-13.13-55.15-13.13-19.16,0-37.53,4.06-54.62,12.08-8.21,17.47-12.38,35.78-12.38,54.45s4.34,37.84,12.54,55.35"/>
        <path id="path24" class="cls-3" d="M70,767.96c.03-7.2-3.99-13.57-9.24-16.99-4.66-3.02-10.92-5.01-21.01-7.57-3.12-.8-6.38-2.57-7.39-4.83-2.67,2.69-3.16,8.75-2.69,12.28.55,4.09,5.33,10.84,12.53,11.11,4.4.18,9.96-.95,12.63-1.51,4.6-.99,11.88,1.89,13.04,7.51"/>
        <path id="path26" class="cls-3" d="M78.12,673.76c-12.21,0-22.77,8.06-22.73,21.99.04,11.72,9.46,18,12.83,22.48,5.08,6.75,7.83,14.75,8.12,26.98.22,9.74.21,19.35.26,22.76h2.7c-.05-3.56-.17-13.77-.03-23.06.18-12.24,3.03-19.93,8.12-26.68,3.39-4.48,12.81-10.76,12.83-22.48.05-13.94-10.5-21.99-22.7-21.99"/>
        <path id="path28" class="cls-3" d="M81.22,767.95c0-5.62-.06-20.63.07-22.48-.12-22.34,16.12-38.11,26.39-36.88,7.1.62,13.05,3.51,16.25,11.84,2.96,7.76.3,18.09-9.54,20.51-10.54,2.6-16.68,4.77-21.14,7.82-5.45,3.74-9.59,10.89-9.71,19.19"/>
        <path id="path30" class="cls-3" d="M85.62,767.96c-.04-7.2,3.98-13.57,9.22-16.99,4.68-3.02,10.94-5.01,21.03-7.57,3.13-.8,6.39-2.57,7.38-4.83,2.69,2.69,3.17,8.75,2.7,12.28-.56,4.09-5.33,10.84-12.52,11.11-4.4.18-9.99-.95-12.65-1.51-4.58-.99-11.88,1.89-13.05,7.51"/>
        <path id="path32" class="cls-3" d="M89.39,791.2l-1.56-11.4,3.77-.57c.92-.13,2.04.03,2.48.61.49.6.65,1.1.74,1.89.14.97-.14,2.1-1.24,2.66v.03c1.23,0,1.97.88,2.18,2.37.03.31.12,1.07.03,1.71-.25,1.51-1.15,1.99-2.66,2.2l-3.75.51ZM91.82,789.16c.45-.06.9-.09,1.26-.31.54-.35.49-1.11.42-1.68-.19-1.24-.51-1.71-1.82-1.51l-.82.13.52,3.44.45-.06ZM91.03,783.89c.5-.08,1.18-.14,1.46-.62.15-.32.34-.57.21-1.27-.15-.83-.43-1.35-1.49-1.15l-.99.16.39,2.92"/>
        <path id="path34" class="cls-3" d="M105.73,784.34c.03.21.06.45.08.66.3,2.08-.08,3.8-2.41,4.28-3.46.67-4.12-1.48-4.73-4.49l-.32-1.63c-.48-2.88-.68-5.06,2.69-5.73,1.9-.35,3.16.41,3.68,2.3.08.28.18.56.22.85l-2.07.43c-.24-.71-.56-1.98-1.49-1.87-1.67.2-1.12,2.28-.95,3.15l.62,3.12c.19.94.56,2.45,2,2.16,1.17-.24.66-2.06.56-2.81"/>
        <path id="path36" class="cls-3" d="M109.05,787.8l-.72-11.8,2.78-.85,5.82,10.27-2.19.65-1.38-2.61-2.43.73.31,2.97-2.2.64ZM110.74,782.28l1.75-.51-2.33-4.78"/>
        <path id="path38" class="cls-3" d="M40.44,778.87c.87-2.78,1.65-4.83,4.96-3.92,1.78.5,2.88,1.28,2.82,3.34,0,.46-.16.93-.26,1.38l-2.06-.57c.27-1.14.44-2.04-.96-2.47-1.62-.44-2.02,1.52-2.24,2.37l-.84,3.09c-.27.92-.59,2.44.84,2.83,1.18.32,1.89-.84,2.32-2.53l-1.44-.38.5-1.79,3.4,1.09-1.61,5.96-1.56-.42.35-1.26h-.04c-.72,1.03-1.6,1.14-2.37.99-3.4-.92-3.04-3.14-2.23-6.1"/>
        <path id="path40" class="cls-3" d="M53.08,783.91l-1.02,4.85-2.3-.5,2.45-11.33,3.93.89c2.3.5,2.99,1.52,2.67,3.62-.19,1.21-.78,2.51-2.24,2.41l-.02-.02c1.23.43,1.33,1.05,1.12,2.12-.09.46-.73,3.23-.29,3.67l.02.34-2.38-.62c-.1-.77.24-2.15.37-2.91.13-.68.35-1.63-.34-1.99-.54-.29-.74-.27-1.34-.41l-.62-.13ZM53.48,782.15l1.55.42c.94.14,1.47-.35,1.65-1.49.17-1.04-.05-1.45-.89-1.65l-1.66-.34"/>
        <path id="path42" class="cls-3" d="M67.85,779.47l2.28.26-.98,7.96c-.48,2.52-1.45,3.63-4.23,3.28-2.83-.36-3.5-1.64-3.33-4.19l.99-7.96,2.29.26-.98,7.78c-.1.85-.3,2.1,1.2,2.25,1.33.1,1.64-.78,1.79-1.88"/>
        <path id="path44" class="cls-3" d="M72.64,791.41l.68-11.39,4.38.19c2.07.1,2.61,1.79,2.54,3.4-.06.98-.37,2.07-1.22,2.67-.7.5-1.6.62-2.43.58l-1.43-.08-.28,4.77-2.24-.15ZM75.23,785.05l1.16.06c.94.03,1.57-.34,1.65-1.72.05-1.33-.46-1.55-1.68-1.61l-.92-.03"/>
        <path id="path46" class="cls-3" d="M381.22,684.77l-17.39,31.56c-6.56-5.33-14.58-9.25-24.8-9.25-24.2,0-34.03,18.04-34.03,30.74,0,9.43,6.18,23.35,27.71,23.35,9.04,0,21.89-6.29,25.58-9.15l-17.2,36.62c-8.2,1.64-10.89,2.65-17.83,2.86-38.54,1.15-54.11-22.52-54.1-46.72.03-31.98,28.46-70.87,75.59-70.87,2.89,0,6.42,1,9.44,2.11l3.05-3.9"/>
        <path id="path48" class="cls-3" d="M452.97,673.1l4.92,114.71h-36.65l-.02-19.67h-24.99l-8.22,19.67h-39.74l41.55-81.92-9.37-.06,17.8-32.74h54.72ZM420.99,708.2l-14.13,33.37h14.55"/>
        <path id="path50" class="cls-3" d="M246.03,673.1c18.15.1,28.4,9.95,28.4,24.18,0,13.12-10.82,24.73-22.69,30.73,12.22,4.49,13.28,15.52,13.28,23.33,0,18.85-18.92,36.47-43.51,36.47h-53.63l20.92-80.77-8.59-.05,17.57-33.89s33.49-.1,48.25,0M228.22,719.61c3.75,0,10.38-.95,12.04-8.22,1.82-7.89-4.4-8.1-7.39-8.1l-10.66-.05-3.72,16.36h9.73ZM213.15,739.88l-4.91,18.85h12.55c4.94,0,11.67-2.45,13.32-8.59,1.63-6.15-3.08-10.27-8-10.27"/>
      </g>
      <path id="path138" class="cls-2" d="M715.95,695.77c0-.22,3.5-21.11,3.7-22.09l.11-.52h16.03c8.82,0,16.03.05,16.03.1s-.85,5.11-1.89,11.24c-1.04,6.12-1.89,11.22-1.89,11.31,0,.11-6,.18-16.04.18-12.3,0-16.04-.05-16.04-.23h0Z"/>
      <path id="path136" class="cls-2" d="M576.59,695.44c.06-.31.93-5.42,1.94-11.37l1.83-10.81,16.08-.05,16.08-.05-.1.52c-.06.29-.93,5.4-1.94,11.37l-1.84,10.85-16.08.05-16.08.05.11-.56Z"/>
      <path id="path124" class="cls-2" d="M900.59,786.35c.05-.23,4.46-25.12,9.79-55.3l9.69-54.88h31.8v.86c0,.66-18.11,103.89-19.08,108.74l-.2.99h-32.1l.1-.42Z"/>
      <path id="path122" class="cls-2" d="M699.9,786.56c0-.38,14-80.08,14.09-80.23.05-.08,7.26-.14,16.02-.14,14.8,0,15.94.02,15.94.32,0,.22-10.86,62.47-13.9,79.66l-.11.61h-16.02c-11.97,0-16.02-.06-16.02-.22Z"/>
      <path id="path120" class="cls-2" d="M560.54,786.45c.04-.18,3.18-18.08,6.97-39.78,3.79-21.7,6.94-39.68,7-39.97l.1-.52h16.03c12.7,0,16.03.05,16.02.24,0,.13-3.17,18.24-7.03,40.25l-7.02,40.01-16.07.05c-15.24.05-16.07.03-15.99-.28Z"/>
      <path id="path118" class="cls-2" d="M769.94,787.34c-4.57-.32-8.16-.93-10.68-1.83-4.24-1.51-6.72-4.43-7.67-9.02-.35-1.68-.38-2.32-.29-5.76.1-3.84.43-6.76,1.24-10.95.21-1.09,1.62-9.2,3.12-18.02,1.51-8.82,2.79-16.23,2.84-16.47l.1-.42h-5.76c-5.36,0-5.76-.02-5.75-.33,0-.18.71-4.36,1.57-9.3l1.56-8.96,5.95-.05,5.95-.05,1.18-6.56c.65-3.61,1.65-9.21,2.24-12.45l1.06-5.9h15.73c8.65,0,15.72.06,15.72.14,0,.08-1,5.66-2.22,12.41l-2.21,12.27,7.71.05,7.71.05-.11.52c-.06.28-.75,4.25-1.53,8.82-.78,4.57-1.47,8.54-1.53,8.82l-.11.52h-7.72c-4.61,0-7.72.07-7.72.17,0,.1-1.24,7.17-2.75,15.71-2.92,16.47-3.19,18.32-2.9,19.45.28,1.07,1.29,2.26,2.32,2.76,1.95.94,3.46,1.17,7.61,1.17h3.84l-.1.42c-.05.23-.82,5.1-1.7,10.81-.88,5.71-1.64,10.64-1.7,10.96l-.1.58-5.71.24c-7.55.31-16.28.41-19.18.21h0Z"/>
      <path id="path108" class="cls-2" d="M812.17,785.8c-2.5-1.25-2.84-1.48-4.43-3.06-1.8-1.79-2.83-3.34-3.72-5.59-1.07-2.71-1.28-4.79-.96-9.43.33-4.76.96-7.16,2.83-10.76,1.12-2.15,2.14-3.47,4.56-5.92,4.53-4.57,9.37-7.39,15.92-9.28,2.76-.79,12.42-2.42,20.72-3.49,9.32-1.2,14.44-2.18,16.39-3.12,1.3-.63,2.75-2.24,3.27-3.62.81-2.15.18-4.76-1.45-6-.85-.65-3.53-1.45-6.01-1.79-2.53-.35-6.72.35-9.29,1.56-1.44.68-3.18,2.45-3.92,4-.35.74-.69,1.49-.75,1.68-.1.31-1.01.33-15.68.33h-15.57l.11-.61c1.58-8.81,6.74-15.72,14.98-20.1,7.31-3.88,16.87-5.8,30.86-6.19,11.66-.33,22.57,1.23,28.8,4.11,3.54,1.64,6.42,4.11,7.75,6.66,1.39,2.66,2.23,6.67,2.23,10.67,0,2.84-.19,5.11-.77,9.15-.4,2.76-7.3,41.77-7.43,41.98-.04.07-.17.82-.29,1.67-.38,2.75.42,5.21,2.21,6.86.82.76.84.8.68,1.55l-.16.77-2.74-.06c-1.51-.03-8.94-.24-16.51-.46l-13.78-.4-.05-4.29-.05-4.29-1.18.95c-5.25,4.27-12.01,7.47-18.63,8.85-9.8,1.79-19.81,1.72-27.96-2.3h0ZM847.69,771.29c1.85-.3,4.19-1.17,5.89-2.19,5.24-3.15,8.18-8.52,9.3-17,.06-.44.06-.8.01-.8s-.71.24-1.46.54c-2.83,1.12-6.29,2.13-9.46,2.75-5.28,1.04-8.83,2.08-11.24,3.3-1.38.7-2.9,2.33-3.65,3.92-.53,1.11-.61,1.51-.67,3.11-.06,1.71-.03,1.89.46,2.8.6,1.1,1.25,1.71,2.51,2.35,2.33,1.18,5.59,1.66,8.32,1.22h0Z"/>
      <path id="path152" class="cls-2" d="M634.6,813.2c-7.95-.66-14.12-2.03-18.67-4.17-4-1.88-7.75-4.89-9.92-7.97-1.68-2.38-2.94-5.97-3.21-9.09-.06-.76-.03-1.44.07-1.6.16-.24,2.14-.22,15.63.15,8.49.23,15.8.47,16.23.52.76.09.79.13.91.89.29,1.81,1.06,2.77,3.02,3.77,1.49.75,2.98.96,5.91.84,3.79-.16,6.46-1.05,8.84-2.93,2.53-2,5.39-7.78,5.83-11.76.07-.66.41-2.64.75-4.41.34-1.76.6-3.23.58-3.25-.02-.02-.67.43-1.44,1.01-5.74,4.28-12.14,6.78-19.01,7.43-2.43.23-7.97.08-10.33-.29-5.89-.91-11.67-3.86-15.6-7.97-5.28-5.53-8.2-13.95-7.8-22.5.39-8.11,1.78-14.1,4.95-21.33,2.48-5.64,5.79-10.72,9.56-14.68,6.36-6.67,14.08-10.6,23.71-12.05,3.26-.49,8.2-.45,10.7.09,7.05,1.52,12.7,5.19,16.11,10.47.96,1.48,1.11,1.64,1.2,1.25.06-.25.44-2.36.86-4.7.42-2.34.81-4.48.87-4.77l.11-.52h28.29l-.1.42c-.05.23-2.69,14.99-5.86,32.79-6.86,38.6-6.49,36.57-7.64,41.05-2.79,10.89-5.02,15.6-10.01,21.22-3.17,3.57-8.34,7.01-13.02,8.65-3.22,1.13-9.43,2.39-15.19,3.08-3.63.44-12.89.64-16.33.35ZM653.63,760.35c2.37-.6,4.44-1.74,6.08-3.38,3.09-3.08,5.42-7.61,6.29-12.22.45-2.4.59-7.6.25-9.21-.7-3.22-1.94-5.32-4.05-6.83-2.11-1.51-3.37-1.86-6.47-1.83-5.42.06-8.67,1.76-11.48,6.01-2.18,3.3-3.49,6.67-4.31,11.13-.42,2.31-.48,3.01-.4,5.39.08,2.27.17,2.99.58,4.25,1.27,3.89,4.07,6.37,8.01,7.08,1.24.22,3.75.04,5.48-.39Z"/>
      <path id="path112" class="cls-2" d="M491.1,788.75c-11-1.5-18.57-7.57-22.45-18.02-1.96-5.28-2.37-10.6-1.54-19.97.4-4.45,1.85-10.07,4.21-16.27,1.79-4.71,2.91-6.91,5.6-11.04,6.87-10.54,15.58-16.85,26.44-19.16,6.6-1.4,16.33-.08,21.34,2.9,1.86,1.11,4.4,3.4,5.76,5.2.51.68.99,1.22,1.06,1.2.07-.02,1.62-8.52,3.44-18.87l3.32-18.83,16.08-.05,16.08-.05-.1.43c-.05.23-4.43,25.06-9.73,55.16-5.3,30.1-9.68,54.88-9.73,55.06-.09.31-.95.33-14.53.33h-14.43l.1-.42c.05-.23.44-2.42.87-4.86.42-2.44.82-4.65.88-4.91.08-.35-.57.19-2.42,2-3.86,3.78-8.32,6.89-11.76,8.21-2.02.78-5.23,1.6-7.68,1.95-2.47.36-8.16.36-10.79,0h0ZM512.81,765.83c3.58-.86,6.44-2.74,8.76-5.76,1.14-1.48,2.36-3.49,3.01-4.95,2.3-5.12,3.38-13.68,2.28-18.08-.61-2.43-1.58-4.3-2.95-5.68-2.03-2.04-4.41-2.82-8.11-2.64-3.86.18-6.42,1.24-9.4,3.87-1.6,1.42-4.06,5.49-5.31,8.79-1.41,3.74-2.29,9.4-2.15,13.76.11,3.19.45,4.7,1.55,6.89.98,1.95,3,3.47,5.45,4.09,1.3.33,4.84.17,6.87-.31h0Z"/>
    </g>
  </g>
</svg>