<svg width="240" height="66" viewBox="0 0 240 66" fill="none" xmlns="http://www.w3.org/2000/svg">
<path d="M0 0.5H240V65.5H0V0.5Z" fill="white"/>
<path d="M54.4375 49.3335C50.2969 49.3335 46.5 48.068 43.0469 45.5369C39.5938 43.0057 37.1562 39.5682 35.7344 35.2244C34.3125 30.8807 33.5938 26.0682 33.5938 20.7841C33.5938 15.5341 34.3047 10.75 35.7188 6.43182C37.1328 2.11364 39.5625 -0.00568182 43 -0.00568182C46.4375 -0.00568182 48.8672 2.11364 50.2812 6.43182C51.6953 10.75 52.4062 15.5341 52.4062 20.7841C52.4062 26.0682 51.6875 30.8807 50.2656 35.2244C48.8438 39.5682 46.4062 43.0057 42.9531 45.5369C44.75 47.4006 46.5 48.4801 48.1875 48.7756C49.875 49.071 52.0156 49.2188 54.5938 49.2188L54.4375 49.3335ZM42.9688 35.1392C44.625 35.1392 45.9219 34.2812 46.8594 32.5653C47.7969 30.8494 48.25 27.9744 48.25 23.9318C48.25 19.8551 47.8125 16.9119 46.9375 15.0994C46.0625 13.2869 44.75 12.3807 43.0938 12.3807C41.4375 12.3807 40.1328 13.2869 39.1875 15.0994C38.2422 16.9119 37.7812 19.8551 37.7812 23.9318C37.7812 27.9744 38.2188 30.8494 39.125 32.5653C40.0312 34.2812 41.3125 35.1392 42.9688 35.1392Z" fill="#0E2A6E"/>
<path d="M63.8594 49.2188V-0.00568182H73.5469V37.75H89.2656V49.2188H63.8594Z" fill="#0E2A6E"/>
<path d="M129.547 37.8665V49.2188H99.2031V-0.00568182H128.828V11.4631H108.672V19.0597H126.797V29.4517H108.672V37.8665H129.547Z" fill="#0E2A6E"/>
<path d="M140.281 49.2188V-0.00568182H150V49.2188H140.281Z" fill="#0E2A6E"/>
<path d="M211.547 49.2188L193.047 24.3665L174.547 49.2188H162.703L187.797 17.5199V-0.00568182H198.297V17.5199L223.391 49.2188H211.547Z" fill="#0E2A6E"/>
<path d="M22.8281 49.2188L17.7031 43.1449C14.0781 46.054 9.6875 47.5085 4.53125 47.5085C3.03125 47.5085 1.51562 47.3949 0 47.1676L3.92188 35.0256C7.21875 35.8494 10.2969 35.9801 13.1562 35.4233C14.0312 35.2699 14.8047 34.8949 15.4688 34.2983C16.1328 33.7017 16.4531 32.9517 16.4219 32.0483C16.3906 31.1449 16.0312 30.3693 15.3438 29.7216C14.6562 29.0739 13.8281 28.5369 12.8594 28.1108L5.79688 25.429C2.01562 24.0369 0.125 21.6506 0.125 18.2727C0.125 14.1847 2.0625 10.6506 5.92188 7.66761C9.78125 4.68466 14.5312 3.19034 20.1562 3.19034C24.8281 3.19034 28.9375 4.41761 32.4688 6.87784L28.125 18.2216C25.5469 16.8636 23.0156 16.1847 20.5312 16.1847C19.7812 16.1847 19.125 16.3153 18.5625 16.5739C18 16.8324 17.7188 17.2074 17.7188 17.7C17.7188 18.5142 18.2344 19.1449 19.2656 19.5938L26.3281 22.2756C30.1406 23.6676 32.6562 25.804 33.875 28.679C35.0938 31.554 35.0781 34.6222 33.8281 37.8835C32.5781 41.1449 30.1562 43.6847 26.5625 45.5028L22.8281 49.2188Z" fill="#00A9E3"/>
</svg>
