<svg width="1024" height="320" viewBox="0 0 1024 320" fill="none" xmlns="http://www.w3.org/2000/svg">
<path d="M0 0.25H1024V319.75H0V0.25Z" fill="white"/>
<path d="M125.75 228.75H168.25V271.25H125.75V228.75Z" fill="#1A1A1A"/>
<path d="M201 228.75H229.5V271.25H201V228.75Z" fill="#1A1A1A"/>
<path d="M262 228.75H290.5V271.25H262V228.75Z" fill="#1A1A1A"/>
<path d="M125.75 167.75H168.25V196.25H125.75V167.75Z" fill="#1A1A1A"/>
<path d="M125.75 106.75H168.25V135.25H125.75V106.75Z" fill="#1A1A1A"/>
<path d="M262 106.75H290.5V135.25H262V106.75Z" fill="#1A1A1A"/>
<path d="M201 106.75H229.5V135.25H201V106.75Z" fill="#1A1A1A"/>
<path d="M125.75 45.75H290.5V74.25H125.75V45.75Z" fill="#1A1A1A"/>
<path d="M428.163 154.25L497.413 45.75H443.913L399.163 118.25L375.913 83.75L351.913 45.75H323.413L371.413 124.25L327.913 189.25L381.413 268.25H434.163L478.163 196.25L501.413 230.75L525.413 268.25H553.913L505.913 189.75L549.413 124.75L494.663 49.25L428.163 154.25Z" fill="#00509A"/>
<path d="M699.049 45.75V248.5L752.549 268.25H788.549V45.75H699.049ZM757.549 220.25V89.25H758.299L757.549 220.25Z" fill="#1A1A1A"/>
<path d="M831.026 268.25H914.276V227.5L854.276 226.75V174.25H911.276V132.75H854.276V90H913.526V49H831.026V268.25Z" fill="#1A1A1A"/>
<path d="M592.518 45.75H570.268L487.768 268.25H569.518L579.268 238.25H658.268L668.018 268.25H749.018L666.518 45.75H645.268L592.518 45.75ZM618.643 196.25L633.643 151.25L648.268 196.25H618.643Z" fill="#1A1A1A"/>
<path d="M323.413 45.75H412.163V268.25H323.413V45.75ZM380.913 227.5V89.25H381.663L380.913 227.5Z" fill="#1A1A1A"/>
</svg>
